name C:\Users\tom_v\My Drive\PostDoc\MusculoskeletalSpecialization\ResultsSprinting\Case_3\motion.mot
datacolumns 32
datarows 10
range 0.42215844 0.47281745
endheader 
time	pelvis_tilt	pelvis_list	pelvis_rotation	pelvis_tx	pelvis_ty	pelvis_tz	hip_flexion_r	hip_adduction_r	hip_rotation_r	knee_angle_r	ankle_angle_r	subtalar_angle_r	mtp_angle_r	hip_flexion_l	hip_adduction_l	hip_rotation_l	knee_angle_l	ankle_angle_l	subtalar_angle_l	mtp_angle_l	lumbar_extension	lumbar_bending	lumbar_rotation	arm_flex_r	arm_add_r	arm_rot_r	elbow_flex_r	arm_flex_l	arm_add_l	arm_rot_l	elbow_flex_l	
          0.42215844	        -11.11589756	         -1.85449256	         -1.78753893	          1.39437939	          0.89803350	         -0.00464891	         41.85412097	          3.19417969	         -3.15015711	        -77.04509704	          6.97291358	          1.95604362	          2.35027603	          9.27632488	          3.59678253	          5.47544509	        -35.24922782	          9.24608718	         -4.27854421	         45.68267433	         -3.93972531	          2.78487119	         -3.96079068	         -0.69855851	         -8.28804999	          5.04981102	         51.96405885	         -1.89377260	        -11.71951282	         12.40716506	         46.98206001	
          0.42778722	        -11.15303157	         -2.07943818	         -1.79902969	          1.41318091	          0.90004977	         -0.00462953	         43.06473500	          3.51485201	         -3.25086136	        -76.19445300	          6.96479632	          1.58372851	          2.17256530	          7.74322065	          3.10073973	          5.13371751	        -34.29356342	          7.76894920	         -3.44291115	         46.93007571	         -3.94158373	          3.20707544	         -4.20265440	         -0.95569864	         -8.28222239	          4.67552080	         52.98435594	         -2.19812848	        -11.79779448	         12.49141569	         47.56669468	
          0.43341600	        -11.18638040	         -2.28289192	         -1.81032437	          1.43203914	          0.90195270	         -0.00460254	         44.20287141	          3.81341814	         -3.30593526	        -75.19308659	          6.88521961	          1.22053151	          2.00852204	          6.27344859	          2.63609630	          4.81055080	        -33.45914170	          6.31993518	         -2.54714542	         47.78434121	         -3.93599104	          3.60285115	         -4.43034434	         -1.15198992	         -8.24919473	          4.30454568	         53.78775691	         -2.43953473	        -11.84950014	         12.60688986	         47.95644485	
          0.43904478	        -11.21585269	         -2.46460367	         -1.82090157	          1.45094721	          0.90373191	         -0.00456756	         45.26624651	          4.08972341	         -3.31658176	        -74.04818370	          6.73504407	          0.86372209	          1.85679350	          4.87707368	          2.20319032	          4.50926861	        -32.75549583	          4.86723311	         -1.61161250	         48.31452710	         -3.92372118	          3.97107191	         -4.64296072	         -1.28574018	         -8.19071705	          3.93868096	         54.37079290	         -2.61585182	        -11.87373666	         12.75195952	         48.14882213	
          0.44467356	        -11.24128905	         -2.62469328	         -1.82960737	          1.46989527	          0.90537954	         -0.00452315	         46.25215310	          4.34277176	         -3.28768603	        -72.76560234	          6.51507786	          0.51185190	          1.71683998	          3.56306689	          1.80060898	          4.23116563	        -32.19083673	          3.39480508	         -0.64541811	         48.56433293	         -3.90658259	          4.31055453	         -4.83954840	         -1.35549170	         -8.10865938	          3.57988788	         54.73133875	         -2.72504221	        -11.86976913	         12.92388113	         48.14364766	
          0.45030233	        -11.26255089	         -2.76260552	         -1.83524461	          1.48887090	          0.90688963	         -0.00446747	         47.15653089	          4.57131279	         -3.22305680	        -71.34775001	          6.22699182	          0.16375108	          1.58793868	          2.34097931	          1.42740591	          3.97761988	        -31.77468336	          1.89511181	          0.34663783	         48.55867973	         -3.88704263	          4.61913024	         -5.01861636	         -1.35999039	         -8.00502603	          3.23045216	         54.86833433	         -2.76501096	        -11.83694095	         13.11903013	         47.94220550	
          0.45593111	        -11.28002706	         -2.87823566	         -1.83556548	          1.50786304	          0.90825912	         -0.00439951	         47.97062217	          4.77557561	         -3.12297121	        -69.78799034	          5.87256726	         -0.18120105	          1.47026266	          1.22108878	          1.08231473	          3.75302016	        -31.51617292	          0.36423924	          1.36114311	         48.31002327	         -3.86681967	          4.89504716	         -5.17909851	         -1.29857619	         -7.88208424	          2.89304788	         54.78077441	         -2.73360718	        -11.77422194	         13.33350798	         47.54533987	
          0.46155989	        -11.29380205	         -2.97156143	         -1.82791449	          1.52686405	          0.90948857	         -0.00431798	         48.67982920	          4.95626396	         -2.98624626	        -68.07080393	          5.45349213	         -0.52302535	          1.36320749	          0.21272757	          0.76357241	          3.56190817	        -31.42351124	         -1.20002133	          2.39767294	         47.82332417	         -3.84738152	          5.13637582	         -5.31953151	         -1.17140358	         -7.74223897	          2.57046849	         54.46751058	         -2.62847071	        -11.68029047	         13.56351522	         46.95304330	
          0.46718867	        -11.30375656	         -3.04261087	         -1.80928856	          1.54586771	          0.91058081	         -0.00422085	         49.26595921	          5.11393348	         -2.81247652	        -66.17659304	          4.97381808	         -0.86215764	          1.26563655	         -0.67520891	          0.46857323	          3.40676096	        -31.50241195	         -2.80463522	          3.45758605	         47.10746123	         -3.83019472	          5.34094101	         -5.43837818	         -0.97909431	         -7.58786905	          2.26575802	         53.92762973	         -2.44725257	        -11.55380920	         13.80489907	         46.16530306	
          0.47281745	        -11.30999046	         -3.09150541	         -1.77677451	          1.56486916	          0.91153719	         -0.00410521	         49.71129511	          5.24995636	         -2.60102554	        -64.09162667	          4.44054437	         -1.19889875	          1.17674741	         -1.43278444	          0.19478675	          3.28982546	        -31.75945870	         -4.45970509	          4.54148295	         46.17003359	         -3.81602845	          5.50664283	         -5.53427183	         -0.72268032	         -7.42139443	          1.98252104	         53.16109988	         -2.18829412	        -11.39369190	         14.05325693	         45.18288918	
